<?xml version="1.0" encoding="UTF-8"?>
<svg id="Layer_1" data-name="Layer 1" xmlns="http://www.w3.org/2000/svg" viewBox="0 0 9538.45 5050.18">
  <defs>
    <style>
      .cls-1 {
        fill: #c86641;
      }

      .cls-2 {
        fill: #deb38e;
      }

      .cls-3 {
        fill: #8b4631;
      }
    </style>
  </defs>
  <path class="cls-1" d="M2212.13,8.78c274.71-15.63,550.9-10.93,824.32,18.43,158.72,18.07,320.31,42.28,465.51,106.59,38.79,19.87,88.74,45.98,89.33,92.05-4.64,34.78-42.84,53.84-72.55,70.01-122.99,55.1-259.61,74.8-392.86,97.92-205.91,29.81-414.58,41.1-622.95,41.46-237.89-2.17-476.57-16.17-710.61-56.55-103.15-19.78-208.47-39.3-302.64-84.37-28.33-14-58.63-31.08-71.37-59.53-11.06-38.84,24.78-71.09,58.04-89.16,102.26-54.29,220.42-74.98,335.12-95.57,132.67-19.33,266.42-33.97,400.66-41.28ZM1840.39,114.92c-70.38,15.9-147.67,24.75-205.71,68.02-17.67,16.62-19.84,44.53,1.18,59.71,42.74,34.87,100.88,46.97,154.78,60.43,165.24,35.68,335.02,48.51,504.11,57.45,227.43,9.03,455.94,4.34,682.18-19.69,109.86-12.01,220.42-27.01,325.05-61.25,28.33-11.2,59.23-23.22,77.88-46.88,12.24-17.62-1.28-36.04-15.4-48.06-44.81-35.23-104.43-47.25-160.2-60.16-190.71-41.37-387.43-50.05-582.48-57.9-261.09-5.51-524.44,2.17-781.38,48.33Z"/>
  <path class="cls-1" d="M1470.13,341.21c130.3,61.97,277.37,85.28,421.09,105.96,118.65,16.8,238.48,24.57,358.22,32.25,17.57,27.91,54.39,29.81,85.09,36.77,101.28,19.78,200.68,47.15,298,79.31,89.04,29.99,175.21,80.31,222,158.18,48.37,82.02,67.71,174.98,85.38,265.85,26.26,135.77,56.96,272,114.5,400,83.9,188.08,217.16,352.76,312.51,535.59,60.61,121.32,112.63,247.61,137.8,379.5,32.18,173.98,20.24,352.3-9.48,525.93-35.63,201.63-95.95,399.19-172.35,590.97-70.18,173.98-155.27,343.54-264.05,500.36-80.55,112.56-177.87,216.26-297.11,295.94-143.92,102.8-323.96,158.81-505.59,167.12-125.36,5.24-251.61-1.9-374.6-25.56-71.47-11.29-140.76-31.17-211.43-45.53-35.93-7.68-54.39-37.94-71.56-64.68-212.72-314.55-430.77-628.73-587.32-970.92-67.12-145.71-120.72-296.66-162.67-449.96-46.99-192.77-77.98-393.41-41.26-589.98,24.38-117.53,67.91-232.43,136.22-334.78,71.56-105.96,160.5-201.27,256.64-289.07,135.63-118.43,273.52-241.83,353.08-400,86.27-158.18,97.52-342.55,63.47-514.46-27.74-135.23-76.5-267.03-146.58-388.8ZM1774.25,614.47c16.88,63.87,34.25,127.82,41.85,193.32,27.34,206.32-8.88,422.31-119.64,605.15-90.32,154.2-223.67,281.39-349.92,411.02-90.91,90.61-178.37,186.99-233.84,300.18-88.44,167.75-105.22,360.44-74.72,542.82,33.86,205.96,108.78,404.7,201.56,594.22,71.47,131.8,147.18,262.87,244.6,380.4-2.17-32.07-17.37-61.43-26.95-91.87-57.25-154.74-107.99-311.74-144.81-471.64-49.85-217.89-83.11-446.43-25.27-665.86,31.19-124.93,99.5-243,203.34-329.9,109.47-92.23,225.25-182.2,303.43-299.91,119.04-172.36,177.28-377.33,178.86-580.49-4.34-147.34-25.76-297.47-92.98-432.79-30.7-53.93-64.85-106.5-105.52-154.65Z"/>
  <path class="cls-1" d="M414.44,3924.51c238.48-100.54,494.93-158.81,752.76-199.91,15.6,21.41,29.02,44.17,41.26,67.48-177.58,36.68-355.06,78.95-522.57,145.17-109.37,44.26-217.06,97.92-300.87,177.6-57.05,50.41-100.58,119.24-97.82,193.77-.59,81.21,50.93,153.66,114.4,206.69,128.42,107.95,291.69,171.91,453.57,226.02,377.46,119.96,776.05,173.08,1173.16,199.82,480.71,28.64,965.67,17.8,1441.84-51.85,165.93-20.78,329.79-53.3,491.37-93.23,190.9-51.31,383.58-107.86,553.26-205.42,99.7,10.21,200.87,16.62,301.16,10.66-141.35,95.66-305.6,158.09-470.15,212.02-313.4,95.57-639.44,152.39-966.76,189.07-437.77,47.7-880.19,59.17-1320.33,36.77-247.76-12.83-494.24-40.56-739.23-75.97-229.1-35.86-456.63-83.29-675.96-154.2-164.55-51.94-326.43-118.34-464.33-216.89-84.69-62.69-167.11-144.44-177.78-248.33-10.66-85.46,39.39-165.49,100.68-226.2,86.86-84.55,199.29-142.64,312.32-193.05Z"/>
  <path class="cls-1" d="M675.13,3965.07c176.2-70.01,362.16-118.7,550.7-151.67,14.61,25.75,31.09,50.68,43.93,77.33-180.44,44.08-364.63,95.39-515.06,200.72-63.77,48.33-127.43,110.84-130.49,191.15-7.8,72.99,37.31,139.66,92.98,188.17,109.47,95.03,252.89,146.25,392.86,191.51,174.12,52.21,352.19,94.49,533.72,117.98,482.69,72.9,975.64,71.64,1461.88,32.07,363.74-37.85,733.31-97.38,1062.8-250.23,106.01,4.06,212.03,10.66,318.14,14.91-159.81,91.24-339.86,147.52-520.1,194.58-166.62,41.55-335.81,74.44-506.77,96.66-466.3,67.93-940.9,78.95-1411.64,51.85-238.09-12.83-475.09-41.37-709.42-81.75-255.95-51.04-513.88-111.65-745.45-226.92-94.37-51.13-192.78-107.41-248.55-196.84-44.32-69.92-41.36-161.7,9.67-228.09,76.1-104.34,199.89-168.38,320.8-221.41Z"/>
  <path class="cls-1" d="M932.27,4019.36c112.33-51.76,234.73-80.58,355.75-109.76,18.75,27.28,36.03,55.56,52.61,84.1-124.27,41.82-258.42,84.82-342.03,184.73-47.97,53.39-56.07,133.79-15.3,192.68,53.6,78.95,147.18,124.12,235.13,164.95,178.66,73.08,371.15,112.47,563.23,142.91,257.53,40.92,519.6,50.68,780.59,49.59,353.87-4.52,710.41-34.96,1051.05-126.74,40.27-10.03,78.67-26.56,119.73-33.69,90.12,2.98,180.24,4.16,270.36,1.99,24.68-.45,49.35,2.08,73.74,5.78-183.3,80.94-382.6,125.38-581.3,161.97-193.57,37.31-390.99,53.84-588.01,67.03-491.28,26.2-988.47,13.1-1470.96-81.48-180.24-38.12-359-86.63-526.61-158.9-83.71-38.75-165.93-86.9-221.31-157.63-46.1-58.72-54.88-143.27-10.56-204.88,59.23-85,156.06-140.65,253.88-182.66Z"/>
  <path class="cls-1" d="M1052.59,4155.95c83.61-72.63,194.36-109.76,302.05-141.73,20.43,30.53,40.96,61.07,58.73,93.04-52.91,27.46-104.83,63.87-127.33,117.53-23.49,53.57-.59,115.99,43.53,154.83,53.6,47.61,119.64,82.39,188.83,107.5,180.14,66.03,373.42,93.95,564.62,117.71,329.29,30.35,662.44,22.67,990.55-14.91,122.2-5.51,244.21-12.47,366.41-16.26,61.2,1.36,122.89-10.21,183.5,2.44-226.04,64.59-461.66,96.93-697.08,115.72-449.13,31.53-905.46,20.96-1346.19-70.28-152.11-34.15-305.21-75.07-440.93-148.6-65.35-38.03-135.03-86.72-152.9-159.71-15.1-59.35,20.24-117.71,66.23-157.27Z"/>
  <path class="cls-1" d="M1303.71,4249.9c16.29-56.91,68.7-97.56,123.49-124.21,51.43,69.11,90.42,145.71,144.61,213.28,20.14,24.48,49.16,41.1,78.38,55.28,152.9,75.61,327.02,102.08,497.2,123.58,93.18,11.02,187.45,14.09,280.93,22.31,117.86,37.22,245.39,23.49,365.82,50.05-198.11,20.05-398.29,17.07-596.7,2.35-183.3-11.92-365.82-38.66-542.8-84.19-106.31-29.36-214.49-66.12-297.81-135.68-36.82-30.62-63.96-76.15-53.11-122.76Z"/>
  <path class="cls-3" d="M1840.39,114.92c256.94-46.16,520.3-53.84,781.38-48.33,195.05,7.86,391.78,16.53,582.48,57.9,55.77,12.92,115.39,24.93,160.2,60.16-50.24,43.54-119.44,59.08-184.68,74.07-222.1,43.99-450.51,49.23-676.85,52.3-242.53-2.26-488.02-10.12-724.13-65.49-52.71-10.57-100.68-33.88-144.12-62.6,58.04-43.27,135.33-52.12,205.71-68.02Z"/>
  <path class="cls-3" d="M3381.53,399.39c54.39-12.01,106.61-31.35,156.26-54.92-90.52,152.12-143.23,322.77-156.85,495.4-8.98,164.95,17.27,339.12,119.73,478.86,88.34,129.36,216.57,228.82,329.89,338.75,102.16,101.45,203.04,207.23,268.39,332.79,101.67,178.41,131.18,384.64,111.44,583.47-34.15,347.52-170.17,679.68-342.82,988.26-101.67,181.12-216.57,355.47-330.28,530.26-46.59,71.36-99.7,139.02-144.12,211.47-17.47,29.54-53.5,42.55-84.4,57.45-156.65,67.3-329.79,93.32-500.36,110.93-278.56,24.48-562.05,20.51-836.76-31.17-70.77-13.64-140.86-31.08-208.18-55.47-32.08-11.92-66.73-20.51-93.38-41.64,70.68,14.36,139.97,34.24,211.43,45.53,122.99,23.67,249.24,30.8,374.6,25.56,181.62-8.31,361.67-64.32,505.59-167.12,119.24-79.68,216.57-183.38,297.11-295.94,108.78-156.82,193.86-326.38,264.05-500.36,76.4-191.78,136.71-389.34,172.35-590.97,29.71-173.62,41.66-351.94,9.48-525.93-25.17-131.89-77.19-258.18-137.8-379.5-95.35-182.84-228.61-347.52-312.51-535.59-57.55-128-88.25-264.23-114.5-400-17.67-90.88-37.02-183.83-85.38-265.85-46.79-77.87-132.96-128.18-222-158.18-97.33-32.16-196.73-59.53-298-79.31-30.7-6.96-67.52-8.85-85.09-36.77,67.91-2.62,135.63,6.05,203.64,5.6,311.33.81,625.62-14.81,928.46-85.64Z"/>
  <path class="cls-3" d="M3839.25,3717c176.89,24.21,350.42,66.49,520.89,115.63,168.89,54.56,337.88,117.98,479.23,220.87,63.96,46.7,122.99,102.8,154.78,172.99,27.84,65.49,22.9,142.28-13.42,204.25-37.02,67.93-99.1,120.69-164.75,165.4-100.29,5.96-201.47-.45-301.16-10.66,72.16-48.33,144.31-102.08,185.67-176.42,39.09-66.67,34.94-150.86-3.55-216.89-35.83-62.87-92.79-113.64-155.96-153.57-101.37-68.84-219.63-112.01-336.6-153.12-132.86-42.1-269.28-75.34-407.18-100.36,14.81-22.31,29.12-44.81,42.05-68.11Z"/>
  <path class="cls-3" d="M3735.31,3887.48c18.26-23.94,28.63-53.66,50.93-74.53,200.58,37.13,401.84,83.2,586.04,167.03,108.19,47.34,215.68,108.04,283.99,200.63,49.65,65.67,60.21,156.46,17.67,227.37-42.84,71.27-112.63,127.01-187.35,169.02-106.11-4.25-212.13-10.84-318.14-14.91,71.37-45.08,147.18-91.06,191.1-161.79,41.46-62.51,39.19-145.62-2.07-207.68-47.58-73.35-124.77-125.66-206.4-164.14-129.41-67.3-272.73-106.41-415.76-141.01Z"/>
  <path class="cls-3" d="M3667,3992.72c19.15-28.73,36.03-58.72,57.65-86,173.93,45.17,353.28,90.88,500.95,190.24,67.32,47.34,135.13,111.56,137.21,194.13,4.15,60.89-33.36,115.9-77.98,158.09-57.35,54.29-130.69,91.15-202.06,127.55l-5.63-.81c-24.38-3.7-49.06-6.23-73.74-5.78-90.12,2.17-180.24.99-270.36-1.99,89.33-45.17,187.74-81.66,258.22-152.03,46.79-46.43,76.6-112.83,57.05-175.79-20.14-58.63-70.38-104.07-123.78-138.75-78.67-49.05-168.3-80.04-257.53-108.85Z"/>
  <path class="cls-3" d="M3595.63,4102.65c18.75-30.71,37.41-61.43,59.03-90.42,104.43,32.97,211.24,69.11,295.34,136.95,43.73,36.31,84.79,85.55,78.77,142.64-7.8,69.65-66.14,122.31-124.37,162.15-84.69,55.47-182.51,93.13-280.93,122.13-60.61-12.65-122.3-1.08-183.5-2.44-122.2,3.79-244.21,10.75-366.41,16.26,145-28.09,293.26-50.77,429.29-107.32,70.58-29.72,143.33-63.41,192.48-120.42,36.82-41.28,47.58-102.44,20.04-150.41-23.89-48.96-73.74-79.31-119.73-109.12Z"/>
  <path class="cls-3" d="M3575.1,4132.1c7.6-14.63,23.1.36,32.57,5.15,51.72,32.7,105.91,83.02,97.72,145.53-10.07,62.78-68.7,104.88-123.29,137.13-140.27,78.05-303.33,112.01-463.14,138.57-107.59,14.36-216.07,32.16-324.85,31.71-120.43-26.56-247.96-12.83-365.82-50.05,47.48-4.7,95.25.54,142.83-2.08,206.5-10.21,414.97-25.2,613.77-80.94,74.82-21.14,149.84-45.53,215.68-85.19,46.79-28.55,66.92-78.68,96.14-120.33,27.24-39.21,51.92-79.86,78.38-119.51Z"/>
  <path class="cls-2" d="M1774.25,614.47c40.67,48.15,74.82,100.72,105.52,154.65,67.22,135.32,88.64,285.46,92.98,432.79-1.58,203.16-59.82,408.13-178.86,580.49-78.18,117.71-193.96,207.68-303.43,299.91-103.84,86.9-172.15,204.97-203.34,329.9-57.84,219.42-24.58,447.97,25.27,665.86,36.82,159.89,87.56,316.89,144.81,471.64,9.57,30.44,24.78,59.8,26.95,91.87-97.43-117.53-173.14-248.6-244.6-380.4-92.79-189.52-167.71-388.26-201.56-594.22-30.5-182.39-13.72-375.07,74.72-542.82,55.47-113.19,142.93-209.58,233.84-300.18,126.25-129.63,259.61-256.82,349.92-411.02,110.75-182.84,146.98-398.83,119.64-605.15-7.6-65.49-24.97-129.45-41.85-193.32Z"/>
  <text/>
  <g>
    <path class="cls-3" d="M4075.95,1215.64c36.37-11.29,46.93-40.15,46.93-143.04V373.71h-57.5c-105.6,0-151.37,30.11-191.26,120.46l-12.91-2.51,7.04-138.02h604.29l7.04,138.02-12.9,2.51c-39.9-90.34-85.66-120.46-191.26-120.46h-55.15v698.89c0,102.89,10.56,131.75,46.93,143.04v16.31h-191.26v-16.31Z"/>
    <path class="cls-3" d="M4531.22,1215.64c36.38-11.29,46.93-40.15,46.93-143.04V407.58c0-87.83-15.25-100.38-46.93-115.44v-13.8l127.9-60.23,10.56,8.78v484.33c68.06-58.97,158.41-115.44,248.76-115.44,114.99,0,185.39,71.52,185.39,218.33v258.48c0,102.89,11.73,131.75,46.93,143.04v16.31h-185.39v-16.31c36.37-11.29,46.93-40.15,46.93-143.04v-233.38c0-130.49-51.63-202.01-154.89-202.01-64.54,0-127.9,41.41-187.74,94.11v341.29c0,102.89,11.73,131.75,46.93,143.04v16.31h-185.39v-16.31Z"/>
    <path class="cls-3" d="M5221.16,937.09c0-204.52,144.32-341.29,308.6-341.29,147.85,0,233.5,102.89,237.02,222.09h-458.79c-2.35,18.82-3.52,37.64-3.52,57.72,0,171.9,99.74,289.85,252.28,289.85,90.35,0,154.89-43.92,208.86-109.16l10.56,11.29c-59.84,87.83-151.37,176.92-276.92,176.92s-278.09-100.38-278.09-307.41ZM5672.91,801.57c-11.73-84.07-75.1-183.19-181.87-183.19-99.74-1.26-160.75,77.79-179.53,183.19h361.4Z"/>
  </g>
  <g>
    <path class="cls-3" d="M4674.54,1969.51c0-267.26,193.61-465.51,469.35-465.51,100.91,0,218.25,31.37,264.01,62.74l4.69,149.32-11.73,2.51c-45.76-114.18-157.23-190.72-296.86-190.72-186.57,0-330.89,133-330.89,388.97-1.17,235.89,132.59,461.75,376.65,461.75,126.72,0,225.29-71.52,271.05-207.03l12.91,1.25-18.78,163.12c-55.15,32.62-166.62,67.76-298.04,67.76-269.88,0-442.37-160.61-442.37-434.14Z"/>
    <path class="cls-3" d="M5527.59,2374.79c35.2-11.29,46.93-40.15,46.93-143.04v-665.01c0-87.83-15.25-100.38-46.93-115.44v-13.8l127.9-60.23,10.56,8.78v845.7c0,102.89,10.56,131.75,46.93,143.04v16.31h-185.39v-16.31Z"/>
    <path class="cls-3" d="M6217.54,2353.46v-225.85c-36.37,154.33-134.94,276.04-251.1,276.04-86.83,0-164.27-56.46-164.27-164.37,0-130.49,123.2-179.43,262.84-220.83l152.54-43.92c-5.87-121.71-64.54-178.17-164.27-178.17-70.4,0-138.46,35.13-197.13,111.67l-10.56-10.04c66.88-89.09,152.54-143.04,254.62-143.04,141.98,0,207.69,84.07,207.69,225.85v250.95c0,102.89,10.56,131.75,46.94,143.04v16.31h-102.08c-23.47,0-35.2-13.8-35.2-37.64ZM6009.85,2329.62c125.55,0,206.51-169.39,207.69-301.14v-37.64l-147.84,42.66c-86.83,26.35-180.7,67.76-179.53,170.65,0,81.56,52.8,125.47,119.68,125.47Z"/>
    <path class="cls-3" d="M6338.4,2598.13c0-23.84,29.33-69.01,72.75-69.01,30.51,0,93.87,18.82,147.85,28.86,41.07-37.64,77.44-99.13,106.78-164.37l-192.43-483.08c-36.37-94.11-65.71-119.2-90.35-130.49v-16.31h177.18v16.31c-35.2,11.29-25.82,36.39,11.73,130.49l144.32,358.86,144.33-358.86c32.85-81.56,30.51-121.71-10.56-130.49v-16.31h130.25v16.31c-32.85,11.29-63.36,36.39-102.08,130.49l-181.87,449.2c-99.74,245.93-203,272.28-278.09,273.53-45.76,1.25-79.79-15.06-79.79-35.13Z"/>
  </g>
  <g>
    <path class="cls-3" d="M4434.28,3286.99c0-267.26,193.61-465.51,469.35-465.51,100.91,0,218.25,31.37,264.01,62.74l4.69,149.32-11.73,2.51c-45.76-114.18-157.23-190.72-296.86-190.72-186.57,0-330.89,133-330.89,388.97-1.17,235.89,132.59,461.74,376.65,461.74,126.72,0,225.29-71.52,271.05-207.03l12.91,1.25-18.78,163.12c-55.15,32.62-166.62,67.76-298.04,67.76-269.88,0-442.37-160.61-442.37-434.14Z"/>
    <path class="cls-3" d="M5284.98,3403.68c0-195.74,146.67-331.25,307.42-331.25,145.5,0,306.25,95.36,306.25,318.71s-167.8,330-306.25,330c-149.02,0-307.42-99.12-307.42-317.45ZM5809.48,3465.17c0-161.86-106.78-377.68-260.49-368.89-119.68,5.02-173.66,110.41-173.66,235.89,0,159.35,96.22,362.62,252.28,362.62,125.55,0,181.87-107.91,181.87-229.62Z"/>
    <path class="cls-3" d="M5981.96,3692.28c35.2-11.29,46.93-40.15,46.93-143.04v-665.02c0-87.83-15.25-100.38-46.93-115.44v-13.8l127.9-60.23,10.56,8.78v845.7c0,102.89,10.56,131.75,46.93,143.04v16.31h-185.39v-16.31Z"/>
    <path class="cls-3" d="M6260.05,3692.28c35.2-11.29,46.93-40.15,46.93-143.04v-665.02c0-87.83-15.25-100.38-46.93-115.44v-13.8l127.9-60.23,10.56,8.78v845.7c0,102.89,10.56,131.75,46.93,143.04v16.31h-185.39v-16.31Z"/>
    <path class="cls-3" d="M6535.8,3413.72c0-204.52,144.32-341.29,308.6-341.29,147.85,0,233.5,102.89,237.02,222.09h-458.79c-2.35,18.82-3.52,37.64-3.52,57.72,0,171.9,99.74,289.85,252.28,289.85,90.35,0,154.89-43.92,208.86-109.17l10.56,11.3c-59.84,87.83-151.37,176.92-276.92,176.92s-278.09-100.38-278.09-307.41ZM6987.55,3278.21c-11.73-84.06-75.1-183.19-181.87-183.19-99.74-1.26-160.75,77.79-179.53,183.19h361.4Z"/>
    <path class="cls-3" d="M7165.89,3413.72c0-198.25,147.85-341.29,319.16-341.29,112.65,0,199.47,33.88,199.47,67.76,0,28.86-36.37,67.76-73.92,67.76-29.33,0-84.48-36.39-178.35-115.44-109.13,20.08-183.05,124.22-183.05,259.73,0,171.9,99.74,289.85,252.28,289.85,90.35,0,154.89-43.92,208.86-109.17l10.56,11.3c-59.84,87.83-151.37,176.92-276.92,176.92-136.11,0-278.09-105.4-278.09-307.41Z"/>
    <path class="cls-3" d="M7847.62,3541.71v-442.92h-75.1v-17.57l150.19-154.33h16.43v154.33h178.35l-5.87,17.57h-172.49v442.92c0,85.32,32.85,117.94,83.31,117.94,32.85,0,73.92-16.31,112.64-65.25l10.56,11.29c-50.46,61.48-110.3,115.44-179.53,115.44-73.92,0-118.51-48.93-118.51-179.43Z"/>
    <path class="cls-3" d="M8185.54,3692.28c36.38-11.29,46.94-40.15,46.94-143.04v-288.59c0-87.83-14.08-100.38-46.94-115.44v-13.8l129.07-60.23,9.39,8.78v469.28c0,102.89,11.73,131.75,46.93,143.04v16.31h-185.4v-16.31ZM8206.67,2925.63c0-40.15,28.16-70.27,64.54-70.27s64.54,30.11,64.54,70.27c0,37.64-28.16,69.01-64.54,69.01s-64.54-31.37-64.54-69.01Z"/>
    <path class="cls-3" d="M8406.13,3097.53v-16.31h168.97v16.31c-35.2,11.29-25.82,36.39,11.73,130.49l153.71,388.97,138.46-386.46c29.33-82.82,24.64-124.22-16.43-133v-16.31h120.86v16.31c-32.85,11.29-51.63,36.39-85.66,133l-172.49,478.06h-49.28l-187.74-480.57c-36.37-94.11-57.5-119.2-82.14-130.49Z"/>
    <path class="cls-3" d="M8983.44,3413.72c0-204.52,144.32-341.29,308.6-341.29,147.85,0,233.5,102.89,237.02,222.09h-458.79c-2.35,18.82-3.52,37.64-3.52,57.72,0,171.9,99.74,289.85,252.28,289.85,90.35,0,154.89-43.92,208.86-109.17l10.56,11.3c-59.84,87.83-151.37,176.92-276.92,176.92s-278.09-100.38-278.09-307.41ZM9435.19,3278.21c-11.73-84.06-75.1-183.19-181.87-183.19-99.74-1.26-160.75,77.79-179.53,183.19h361.4Z"/>
  </g>
  <path class="cls-2" d="M1565.88,2982.04c20.97-7.6,27.06-27.04,27.06-96.33v-470.66h-33.15c-60.89,0-87.27,20.28-110.27,81.12l-7.44-1.69,4.06-92.95h348.4l4.06,92.95-7.44,1.69c-23-60.84-49.39-81.12-110.27-81.12h-31.8v470.66c0,69.29,6.09,88.73,27.06,96.33v10.98h-110.27v-10.98Z"/>
  <path class="cls-2" d="M2381.23,3242.46c0-179.98,111.62-313.49,270.6-313.49,58.18,0,125.83,21.13,152.22,42.25l2.71,100.55-6.77,1.69c-26.38-76.89-90.65-128.44-171.16-128.44-107.56,0-190.78,89.57-190.78,261.95-.68,158.86,76.45,310.96,217.16,310.96,73.06,0,129.89-48.16,156.27-139.42l7.44.84-10.82,109.85c-31.8,21.97-96.07,45.63-171.83,45.63-155.6,0-255.04-108.16-255.04-292.37Z"/>
  <path class="cls-2" d="M1828.62,2964.25c0-179.98,111.62-313.49,270.6-313.49,58.18,0,125.83,21.13,152.22,42.25l2.71,100.55-6.77,1.69c-26.38-76.89-90.65-128.44-171.16-128.44-107.56,0-190.78,89.57-190.78,261.95-.68,158.86,76.45,310.96,217.16,310.96,73.06,0,129.89-48.16,156.27-139.42l7.44.84-10.82,109.85c-31.8,21.97-96.07,45.63-171.83,45.63-155.6,0-255.04-108.16-255.04-292.37Z"/>
</svg>