<?xml version="1.0" encoding="UTF-8"?>
<svg id="Layer_1" xmlns="http://www.w3.org/2000/svg" xmlns:xlink="http://www.w3.org/1999/xlink" version="1.1" viewBox="0 0 1296 864">
  <!-- Generator: Adobe Illustrator 29.1.0, SVG Export Plug-In . SVG Version: 2.1.0 Build 142)  -->
  <defs>
    <style>
      .st0 {
        fill: #592a15;
      }

      .st1 {
        fill: url(#linear-gradient2);
      }

      .st2 {
        fill: url(#linear-gradient1);
      }

      .st3 {
        fill: url(#radial-gradient);
      }

      .st4 {
        fill: url(#linear-gradient);
      }

      .st5 {
        fill: #7d3119;
      }

      .st6 {
        fill: #b15125;
      }

      .st7 {
        fill: #d57728;
      }

      .st8 {
        fill: url(#radial-gradient1);
      }
    </style>
    <linearGradient id="linear-gradient" x1="659.07" y1="429.39" x2="772.29" y2="429.39" gradientUnits="userSpaceOnUse">
      <stop offset=".14" stop-color="#158040"/>
      <stop offset=".45" stop-color="#2d9c44"/>
      <stop offset=".72" stop-color="#3daf47"/>
      <stop offset=".91" stop-color="#43b649"/>
    </linearGradient>
    <linearGradient id="linear-gradient1" x1="588.96" y1="395.33" x2="588.96" y2="224.08" gradientUnits="userSpaceOnUse">
      <stop offset=".34" stop-color="#158040"/>
      <stop offset=".39" stop-color="#239042"/>
      <stop offset=".46" stop-color="#31a145"/>
      <stop offset=".54" stop-color="#3bad47"/>
      <stop offset=".66" stop-color="#41b448"/>
      <stop offset="1" stop-color="#43b649"/>
    </linearGradient>
    <linearGradient id="linear-gradient2" x1="528.07" y1="435.74" x2="528.07" y2="274.21" gradientUnits="userSpaceOnUse">
      <stop offset=".55" stop-color="#158040"/>
      <stop offset=".69" stop-color="#2d9c44"/>
      <stop offset=".82" stop-color="#3daf47"/>
      <stop offset=".91" stop-color="#43b649"/>
    </linearGradient>
    <radialGradient id="radial-gradient" cx="565.87" cy="446.95" fx="565.87" fy="446.95" r="142.95" gradientUnits="userSpaceOnUse">
      <stop offset=".27" stop-color="#ffe900"/>
      <stop offset=".4" stop-color="#fee501"/>
      <stop offset=".54" stop-color="#fcd905"/>
      <stop offset=".67" stop-color="#fac50c"/>
      <stop offset=".8" stop-color="#f6aa15"/>
      <stop offset=".91" stop-color="#f38c20"/>
    </radialGradient>
    <radialGradient id="radial-gradient1" cx="559.6" cy="443.78" fx="559.6" fy="443.78" r="123.58" gradientUnits="userSpaceOnUse">
      <stop offset=".27" stop-color="#fecc07"/>
      <stop offset=".43" stop-color="#fdc808"/>
      <stop offset=".59" stop-color="#fbbc0d"/>
      <stop offset=".75" stop-color="#f7a814"/>
      <stop offset=".9" stop-color="#f38d1f"/>
      <stop offset=".91" stop-color="#f38c20"/>
    </radialGradient>
  </defs>
  <path class="st4" d="M770.14,373.06c-3.5,3.5-9.33,3.98-13.86,1.56-9.62-5.12-17.03-5.48-23.22-3.2-7.42,2.75-12.31,9.19-13.37,16.5-3.85,26.26,41.22,47.43,34.94,83.67-2.4,13.8-19.66,31.01-36.03,33.96-16.58,2.28-36.14,1.87-54.1-6.64-17.11-8.1,11.7-17.74,11.7-17.74,0,0,32.77,15.12,51.33,1.86,31.48-22.82-15.9-41-24.58-83.1-4.18-20.3,8.48-40.4,29.89-46.21,5.86-1.62,11.82-2.01,17.68-1.41,7.09.72,13.83,3.74,18.33,8.89,4.15,4.7,4.5,8.62,1.3,11.86Z"/>
  <g>
    <path class="st6" d="M219.43,711.38c0-.13-.14,1.71-.43,5.53-.58,7.64-.86,15.28-.86,22.92,0,.96.14,2.69.43,5.22.29,2.53.43,5.56.43,9.11v1.84c0,1.77-.58,2.66-1.73,2.66s-2.16-1.02-3.02-3.07c-2.01-4.77-4.03-7.71-6.04-8.8-10.35,8.59-22.78,12.89-37.3,12.89-21.13,0-38.63-6.99-52.5-20.97-13.87-13.98-20.81-31.62-20.81-52.9s6.36-38.91,19.08-52.49c12.72-13.57,29.14-20.36,49.27-20.36,7.33,0,13.18.58,17.57,1.74,4.38,1.16,9.81,3.51,16.28,7.06,3.16,1.78,5.53,2.66,7.11,2.66,1.29,0,2.51-1.09,3.67-3.27,1.87-3.82,3.38-5.73,4.53-5.73s1.72.55,1.72,1.64c0,.55-.14,1.43-.43,2.66-1.58,6.55-2.37,18.83-2.37,36.83,0,2.59-.21,4.09-.65,4.5s-1.01.61-1.73.61c-1.44,0-2.37-1.3-2.8-3.89-1.87-10.91-4.53-19.03-7.98-24.35-7.04-10.91-18.11-16.37-33.2-16.37-11.64,0-20.84,3.68-27.6,11.05-12.22,13.23-18.33,32.61-18.33,58.12,0,22.79,5.03,40.45,15.09,53,8.77,10.92,20.41,16.37,34.93,16.37,7.47,0,14.3-1.77,20.48-5.32,6.18-3.55,10.96-8.42,14.34-14.63,3.38-6.21,6-13.68,7.87-22.41.72-3.28,1.65-4.91,2.8-4.91,1.44,0,2.16,1.02,2.16,3.07Z"/>
    <path class="st6" d="M368.41,755.88c0,1.16-1.08,1.75-3.23,1.75-1.44,0-2.73-.07-3.88-.2l-27.38-.82-27.38.82c-1.01.13-2.09.2-3.23.2-2.88,0-4.31-.71-4.31-2.14,0-1.57,1.94-2.36,5.82-2.36,12.65-.13,18.97-1.34,18.97-3.61,0-.13-.15-.67-.44-1.6l-1.76-5.41-1.11-2.86c-1.29-4.23-4.45-13.59-9.48-28.06h-46.09c-8.62,21.83-12.92,34.38-12.92,37.65,0,1.91.86,3.07,2.59,3.48.43.14,4.02.41,10.78.82,4.17.14,6.25.82,6.25,2.05,0,1.37-1.87,2.05-5.61,2.05-6.61,0-14.3-.27-23.07-.82-2.16-.13-4.39-.2-6.68-.2s-4.53.23-6.69.68c-1.15.23-2.08.34-2.8.34-2.01,0-3.02-.61-3.02-1.85s2.26-1.92,6.79-2.05c4.53-.13,7.79-.79,9.81-1.95,2.01-1.16,3.59-3.39,4.74-6.67,18.49-50.37,33.54-90.82,45.15-121.35.33-1.61,1-3.42,2.01-5.43l.92-3.73c.43-1.5,1-2.25,1.73-2.25.43,0,.79.41,1.08,1.23,1.87,5.32,6.11,16.44,12.72,33.36,5.17,13.23,18.04,46.45,38.59,99.66,1.15,3.09,2.62,5.05,4.42,5.89,1.8.84,5.5,1.33,11.11,1.47,3.74.13,5.61.78,5.61,1.94ZM309.78,706.88c-2.34-6.13-6.21-16.27-11.61-30.43l-10.36-28.36c-6,15.08-13.22,34.67-21.66,58.8h43.62Z"/>
    <path class="st6" d="M481.82,651.63c0,1.78-.86,2.66-2.59,2.66s-2.95-1.77-3.67-5.32c-.29-2.46-.58-4.91-.86-7.37-1.01-4.91-2.66-9.07-4.96-12.48-3.02-4.5-7.98-7.37-14.88-8.59-4.46-.82-8.05-1.16-10.78-1.02-6.76.18-10.86.32-12.29.41v123.59c0,4.92,1.36,7.99,4.1,9.22,1.44.68,5.46,1.1,12.07,1.23,1.72.13,2.59.71,2.59,1.74,0,1.16-1.15,1.74-3.45,1.74-1.15,0-2.16-.07-3.02-.2-8.63-.27-14.74-.41-18.33-.41-4.74,0-9.2.1-13.37.31-4.17.2-9.49.31-15.96.31-3.31,0-4.96-.55-4.96-1.64,0-1.23,3.09-1.91,9.27-2.05,4.45,0,7.33-.88,8.62-2.66.72-1.09,1.08-3.9,1.08-8.4v-122.76c-14.23.14-23.07.82-26.52,2.05-9.06,3.14-14.37,11.53-15.95,25.17-.43,4.09-1.44,6.14-3.02,6.14-1.72,0-2.59-1.43-2.59-4.3,0-1.5.07-3,.21-4.5l.43-4.71c.43-6.27,1.08-14.53,1.94-24.76h9.7l43.98.61c5.17.14,13.22.14,24.15,0l35.79-.61c.29,7.64,1.22,18.96,2.8,33.97,0,.41.07.92.22,1.53.14.61.21.99.21,1.13Z"/>
    <path class="st6" d="M656.46,711.38c0-.13-.14,1.71-.43,5.53-.58,7.64-.86,15.28-.86,22.92,0,.96.14,2.69.43,5.22.29,2.53.43,5.56.43,9.11v1.84c0,1.77-.58,2.66-1.73,2.66s-2.16-1.02-3.02-3.07c-2.01-4.77-4.03-7.71-6.04-8.8-10.35,8.59-22.78,12.89-37.3,12.89-21.13,0-38.63-6.99-52.5-20.97-13.87-13.98-20.81-31.62-20.81-52.9s6.36-38.91,19.08-52.49c12.72-13.57,29.14-20.36,49.27-20.36,7.33,0,13.18.58,17.57,1.74,4.38,1.16,9.81,3.51,16.28,7.06,3.16,1.78,5.53,2.66,7.11,2.66,1.29,0,2.51-1.09,3.67-3.27,1.87-3.82,3.38-5.73,4.53-5.73s1.72.55,1.72,1.64c0,.55-.14,1.43-.43,2.66-1.58,6.55-2.37,18.83-2.37,36.83,0,2.59-.21,4.09-.65,4.5s-1.01.61-1.73.61c-1.44,0-2.37-1.3-2.8-3.89-1.87-10.91-4.53-19.03-7.98-24.35-7.04-10.91-18.11-16.37-33.2-16.37-11.64,0-20.84,3.68-27.6,11.05-12.22,13.23-18.33,32.61-18.33,58.12,0,22.79,5.03,40.45,15.09,53,8.77,10.92,20.41,16.37,34.93,16.37,7.47,0,14.3-1.77,20.48-5.32,6.18-3.55,10.96-8.42,14.34-14.63,3.38-6.21,6-13.68,7.87-22.41.72-3.28,1.65-4.91,2.8-4.91,1.44,0,2.16,1.02,2.16,3.07Z"/>
    <path class="st6" d="M805.44,755.88c0,1.16-1.08,1.75-3.23,1.75-1.44,0-2.73-.07-3.88-.2l-27.38-.82-27.38.82c-1.01.13-2.09.2-3.23.2-2.88,0-4.31-.71-4.31-2.14,0-1.57,1.94-2.36,5.82-2.36,12.65-.13,18.97-1.34,18.97-3.61,0-.13-.15-.67-.44-1.6l-1.76-5.41-1.11-2.86c-1.29-4.23-4.45-13.59-9.48-28.06h-46.09c-8.62,21.83-12.92,34.38-12.92,37.65,0,1.91.86,3.07,2.59,3.48.43.14,4.02.41,10.78.82,4.17.14,6.25.82,6.25,2.05,0,1.37-1.87,2.05-5.61,2.05-6.61,0-14.3-.27-23.07-.82-2.16-.13-4.39-.2-6.68-.2s-4.53.23-6.69.68c-1.15.23-2.08.34-2.8.34-2.01,0-3.02-.61-3.02-1.85s2.26-1.92,6.79-2.05c4.53-.13,7.79-.79,9.81-1.95,2.01-1.16,3.59-3.39,4.74-6.67,18.49-50.37,33.54-90.82,45.15-121.35.33-1.61,1-3.42,2.01-5.43l.92-3.73c.43-1.5,1-2.25,1.73-2.25.43,0,.79.41,1.08,1.23,1.87,5.32,6.11,16.44,12.72,33.36,5.17,13.23,18.04,46.45,38.59,99.66,1.15,3.09,2.62,5.05,4.42,5.89,1.8.84,5.5,1.33,11.11,1.47,3.74.13,5.61.78,5.61,1.94ZM746.8,706.88c-2.34-6.13-6.21-16.27-11.61-30.43l-10.36-28.36c-6,15.08-13.22,34.67-21.66,58.8h43.62Z"/>
    <path class="st6" d="M912.81,649.17c0,1.91-.72,2.87-2.16,2.87s-2.45-1.73-3.02-5.18c-1.73-9.95-5.25-17.2-10.57-21.76-3.45-2.9-8.77-4.7-15.95-5.39-2.59-.27-8.34-.42-17.25-.42-6.61,0-14.52.21-23.72.62v60.16c18.4.14,29.75-.99,34.07-3.38,4.31-2.38,6.9-9.11,7.76-20.16.29-3.14,1.15-4.71,2.59-4.71s2.16,1.02,2.16,3.07c0,1.23-.07,2.25-.21,3.07-.43,9.41-.65,18.15-.65,26.19,0,10.37.23,18.55.69,24.56.11.55.17,1.36.17,2.45,0,1.64-.72,2.45-2.15,2.45-1.15,0-1.86-.41-2.15-1.23s-.79-3.96-1.5-9.41c-1.15-8.32-3.4-13.51-6.76-15.55-3.36-2.05-10.05-3.07-20.06-3.07-5.3,0-9.95.14-13.95.41v60.98c0,3.96,1.63,6.48,4.9,7.57,1.56.55,5.04.75,10.45.61,2.27,0,3.41.55,3.41,1.64,0,1.23-1.44,1.84-4.31,1.84h-49.16c-2.73,0-4.1-.55-4.1-1.64s2.48-1.78,7.44-2.05c4.96-.27,7.87-.92,8.73-1.95s1.29-4.21,1.29-9.54v-117.81c-.15-2.46-.91-4-2.29-4.62-1.38-.61-5.13-.99-11.25-1.13-2.33,0-3.49-.68-3.49-2.04,0-1.23,1.29-1.85,3.88-1.85h3.45c-.29,0,6.65,0,20.81,0h34.82c24.29,0,39.17-.41,44.63-1.23.14,1.78.57,6.89,1.29,15.35.43,5.73,1,10.85,1.73,15.35.29,1.91.43,3.55.43,4.91Z"/>
    <path class="st6" d="M1033.98,724.27c0,.55-.15,3.89-.43,10.03-.29,6.14-.43,12.01-.43,17.6v6.75c-14.09-.82-41.97-1.23-83.66-1.23h-26.95c-2.73,0-4.1-.55-4.1-1.65,0-.73.43-1.16,1.29-1.28.43,0,3.16-.18,8.19-.55,3.74-.27,6-1.02,6.79-2.26.79-1.23,1.19-4.45,1.19-9.65v-115.35c0-3.97-.61-6.33-1.83-7.08-1.22-.75-5.14-1.13-11.75-1.13-2.3,0-3.45-.58-3.45-1.74s1.58-1.74,4.74-1.74h91.42c4.31,0,8.26-.27,11.86-.82.29,5.87.93,13.99,1.94,24.35l.86,8.8c.14.68.22,1.57.22,2.66,0,1.37-.65,2.05-1.94,2.05-1.58,0-2.73-1.71-3.45-5.15-2.73-12.36-7.19-20.18-13.37-23.48-4.6-2.47-16.68-3.71-36.22-3.71h-17.68v60.16h5.17c16.1,0,25.91-1.16,29.43-3.48,3.52-2.32,5.93-9.07,7.22-20.26.29-2.86,1.08-4.3,2.37-4.3,1.58,0,2.37,1.23,2.37,3.68s-.14,6.07-.43,10.85c-.29,4.78-.43,8.39-.43,10.84,0,14.6.23,24.63.69,30.08.11,1.37.17,2.53.17,3.48,0,1.78-.79,2.66-2.36,2.66-1,0-1.68-.58-2.04-1.74-.36-1.16-.97-4.94-1.82-11.36-1.14-8.05-4.65-13.03-10.52-14.94-2.58-.82-9.3-1.23-20.17-1.23h-9.66v68.55c31.62,0,50.16-.6,55.63-1.82,9.49-2.02,14.88-10.64,16.17-25.87.29-3.37,1.22-5.05,2.8-5.05,1.43,0,2.16,1.43,2.16,4.3Z"/>
  </g>
  <path class="st2" d="M625.87,372.65c15.89-35.63,9.25-66-3.71-98.89-41.44,74.13-65.56,126.9-79.39,161.53,31.42-12.49,69.15-31.37,83.11-62.64Z"/>
  <path class="st1" d="M491.17,373.1c-15.89-35.63-9.25-66,3.71-98.89,41.44,74.13,65.56,126.9,79.39,161.53-31.42-12.49-69.15-31.37-83.11-62.64Z"/>
  <path class="st7" d="M661.92,551.41c-.4-11.4.9-22.96-4.41-34.47,12.71,3.32,22.97.74,34.93-3.65-2.17-8.82-5.71-17.77-11.52-25.84,6.69-.59,11.65-3.13,19.02-7.8-6.34-9.14-9.48-18.15-18.48-24.29,12.53-4.07,19.77-11.81,27.47-21.98-6.34-6.01-13.73-11.34-22.44-14.89,5.31-5.41,8.53-11.63,12.03-19.17-10.28-4.26-18.53-9.32-29.86-9.11,8.09-10.08,9.98-20.4,10.95-32.97-8.37-1.59-16.6-2.85-24.99-2.03,2.26-7.21,2.57-14.08,1.5-21.95-11.56,2.07-23.68,2.73-34.64,10.4,1.15-13-2.05-24.13-7.7-34.62-9.6,3.88-19.19,9.85-27,18.66-5.62-10.75-15.97-17.9-22.92-26.03-7.07,6.57-8.61,12.51-9.03,21.27-6-8.29-13.77-14.03-22.48-18.85-6.26,8.85-12.28,17.17-14.6,27.69-9.25-5.74-19.69-7.7-29.06-10.52-2.19,8.56-2.93,16.41-1.23,25.11-8.36-2.97-16.72-3.04-26.29-2.41-.42,9.32-1.26,17.14.67,24.9-8.02-3.02-15.21-3.98-23.42-1.63,2.95,8.87,5.15,21.78,10.59,33.07-9.89,3.18-17.91,9.57-26.17,15.68,5.86,10.07,11.58,18.07,21.62,23.62-10.41,6.44-16.97,16.65-23.99,24.65,6.43,5.19,12.86,8.05,20.73,9.34-5.38,6.97-8.42,15.11-11.68,23.7,10.14,5.19,19.12,8.77,30.22,8.21-5.74,10.56-6.71,21.97-8.28,32.38,8.28.9,16.39.81,24.82-1.47-.67,8.61.99,17,2.82,25.66,11.09-1.09,20.42-2.86,29.28-9,1.56,11.01,6.4,20.68,10.31,29.4,8.35-4.17,15.35-8.41,21.26-15.54,3.15,8.93,8.77,15.64,15.89,22.83,6.08-4.81,11.86-9.97,16.51-16.25,8.76,6.61,20.05,9.69,28.15,14.97,5.49-9.24,7.08-18.41,5.94-30.26,8.29,7.81,17.62,10.83,28.93,13.35,2.32-6.77,3.92-14.37,4.2-22.37,7.09,2.18,14.06,2.12,22.36,2.18Z"/>
  <path class="st3" d="M576.94,411.12c-8.14-15.11-10.49-40.64-2.76-62.07,7.73-21.43,23.68-33.55,39.59-39.98,8.14,15.11,11.22,31.53,3.49,52.96-7.73,21.43-24.4,42.66-40.32,49.09ZM556.52,409.88c9.91-14.01,13.26-42.04,8.19-64.24-5.08-22.21-17.36-33.21-32.38-41.52-9.91,14.01-19.25,26.7-14.17,48.9,5.08,22.21,23.34,48.55,38.36,56.86ZM474.43,389.12c16.28,15.94,47.12,31.88,64.25,30.75.76-17.15-14.6-44.04-30.88-59.97-16.28-15.93-29.53-17.05-46.65-15.92-.76,17.15-3,29.2,13.28,45.14ZM462.07,445.81c22.31,4.6,53.2,2.33,66.99-7.88-8.63-14.84-34.73-33.98-57.04-38.59-22.31-4.6-35.41,6.45-49.21,16.66,8.63,14.84,16.95,25.21,39.26,29.81ZM530.74,458.31c-15.28-7.82-47.34-7.9-68.59.29-21.26,8.19-26.56,22.66-32.65,38.7,15.28,7.82,27.88,12.04,49.14,3.85,21.26-8.19,46.01-26.8,52.1-42.85ZM486.08,511.17c-13.46,18.38-10.55,34.14-6.99,50.93,17.08-1.68,29.97-4.95,43.42-23.33,13.46-18.38,24.22-47.42,20.66-64.21-17.08,1.68-43.64,18.23-57.09,36.61ZM562.41,481.5c-13.46,10.65-23.72,39.87-25.11,62.61-1.38,22.74,6.45,33.48,18.52,45.68,13.46-10.65,25.49-22.9,26.87-45.64,1.38-22.74-8.22-50.45-20.28-62.65ZM582.35,476.94c-5.56,16.24,1.6,46.37,12.73,66.24,11.13,19.88,23.53,24.68,40.28,28.42,5.56-16.24,7.07-37.19-4.06-57.07-11.13-19.88-32.2-33.85-48.95-37.6ZM659.33,468.78c-20.11-10.7-46.55-12.37-62.67-6.46,4.1,16.67,26.41,38.14,46.52,48.85,20.11,10.7,33.13,8.04,49.25,2.13-4.1-16.67-12.99-33.81-33.1-44.51ZM600.8,442.29c12.46,11.81,42.84,17.81,65.55,15.94,22.7-1.87,32.22-11.15,42.58-24.83-12.46-11.81-28.95-21.04-51.65-19.18-22.7,1.87-46.11,14.39-56.48,28.07ZM593.45,423.2c16.86,3.2,45.67-8.18,63.76-22.03,18.09-13.85,21.08-26.8,22.4-43.91-16.86-3.2-33.19-5.08-51.28,8.76-18.09,13.84-33.56,40.07-34.88,57.18Z"/>
  <path class="st8" d="M576.95,425c-1.79-11.58,2.52-28.54,12.39-40.55,9.86-12.02,22.89-16.18,34.59-16.68,1.79,11.58.02,22.84-9.84,34.86-9.86,12.02-25.43,21.87-37.14,22.37ZM564.1,419.55c9.57-6.75,18.13-24.01,19.93-39.46,1.8-15.44-3.59-25.32-11.35-34.09-9.57,6.75-18.47,12.78-20.28,28.22-1.8,15.44,3.94,36.56,11.7,45.33ZM516.03,387.46c6.83,13.97,23.03,31.26,34.31,34.44,4.4-10.85.66-31.66-6.17-45.62-6.83-13.97-15.1-17.7-26.38-20.89-4.4,10.85-8.59,18.1-1.76,32.07ZM495.14,421.1c13.3,8.05,33.69,13.64,44.89,10.22-2.16-11.51-14.59-29.79-27.89-37.84-13.3-8.05-24.25-3.93-35.45-.51,2.16,11.51,5.15,20.08,18.45,28.14ZM536.46,444.82c-8.04-8.52-28.65-15.88-44.19-15.47-15.54.42-22.25,8.51-29.83,17.44,8.04,8.52,15.19,14.11,30.73,13.69,15.54-.42,35.71-6.74,43.29-15.67ZM495.67,468.62c-12.85,8.75-14.58,19.55-16.12,31.16,11.37,2.81,20.41,3.66,33.26-5.09,12.85-8.75,26.4-24.98,27.95-36.59-11.37-2.81-32.23,1.77-45.08,10.52ZM551.54,466.96c-11.09,3.78-24.36,20.23-30.44,34.54-6.08,14.31-3.49,23.01,1.49,33.61,11.09-3.78,21.62-8.91,27.7-23.22,6.08-14.31,6.23-34.33,1.25-44.93ZM565.41,468.58c-7.28,9.17-9.55,30.19-6.93,45.52,2.62,15.33,9.5,21.24,19.42,27.47,7.28-9.17,13.04-22.31,10.41-37.63-2.62-15.32-12.99-29.13-22.91-35.35ZM616.78,480.9c-10.49-11.47-27.12-18.58-38.84-18.46-1.17,11.66,8.29,30.56,18.78,42.04,10.49,11.47,19.48,12.73,31.19,12.61,1.17-11.66-.64-24.71-11.13-36.19ZM585.18,450.5c5.32,10.44,23.49,21.23,38.52,25.21,15.03,3.98,23.27.18,33.06-6.26-5.32-10.44-13.82-20.14-28.85-24.12-15.03-3.98-32.95-1.27-42.73,5.17ZM584.81,436.54c10.12,5.9,31.24,5.16,46.04.38,14.8-4.78,19.67-12.43,24.43-23.14-10.12-5.9-20.19-10.85-34.98-6.07-14.8,4.78-30.73,18.11-35.48,28.82Z"/>
  <path class="st0" d="M616.53,471.75c-1.23,1.61-.88,2.77-1.23,4.72-.56,3.07-4.03,3.97-6.17,5.8-4.63,3.96-6.44,9.5-12.54,11.89-.75.29-1.53.54-2.15,1.06-.53.44-.9,1.05-1.33,1.59.1.04-5.4,3.47-6.05,3.71-2.35.86-4.79,1.26-7.2,1.91-9.78,2.63-21.95,1.68-31.59-1.05-4.31-1.23-8.31-2.31-12.03-4.9-2.11-1.47-4.22-3.32-6.47-4.51-2.34-1.24-4.8-1.58-6.42-3.95-1.16-1.69-1.19-4-2.44-5.62-1-1.29-2.82-2.08-4.05-3.21-2.68-2.46-4.63-5.57-6.01-8.92-1.43-3.48-2.28-7.33-3.39-10.92-.45-1.46-1.32-3.15-1.49-4.65-.36-3.11.54-6.07.04-9.36-.57-3.7-.25-8.06.72-11.65.43-1.61,2.95-4.64,2.84-6.03-.13-1.55-.59-1.46-.25-2.83.2-.84,1.34-2.06,1.68-3.04,2.17-6.27,6.42-11.38,10.43-16.54,1.41-1.81,2.59-2.01,4.09-3.36,1.68-1.51,3.77-2.37,5.38-3.86,1.87-1.74,2.7-3.55,5.43-4.25,1.78-.46,3.66-.42,5.32-1.3,1.47-.77,2.43-1.89,4.14-2.46,2.64-.89,5.42-2.27,8.12-2.89,3.38-.78,7.62-.13,11.07-.06,7.59.16,15.37.68,22.45,3.63,6.5,2.71,12.03,7.53,17.79,11.81,5.38,4.01,8.76,11.6,11.85,17.36,1.86,3.47,4.12,7.48,5.04,11.19,1.01,4.08-.92,7.81.41,12.02.45,1.43,1.15,2.81,1.2,4.31.08,2.49-1.69,5.1-1.88,7.78-.17,2.45-.72,5.02-1.4,7.22-.28.91.56,2.22.23,3.13-.95,2.63-2.5,4.11-4.13,6.26Z"/>
  <path class="st5" d="M611.58,456.26c.28-1.2,1.41-2.13,1.78-3.39.57-1.95,1.45-5.49,1.08-7.47-.24-1.26-1.24-1.6-1.61-2.78-.38-1.22.14-2.04.22-3.22.21-2.98-.36-5.68-1.19-8.41-.28-.91,0-2.04-.34-2.93-.33-.9-1.57-1.45-1.95-2.32-1.45-3.33-1.93-5.91-4.59-8.68-2.33-2.43-4.08-5.68-6.46-7.92-1.27-1.2-2.85-3.29-4.55-3.74-1.1-.29-2.32-.41-3.16-1.17-.44-.4-.73-.94-1.15-1.36-1.48-1.49-4.18-1.12-6.07-1.92-4.51-1.93-8.3-3.65-13.44-4.23-.95-.11-1.92.43-2.87.38-1.81-.1-3.33-1.46-5.58-1.34-1.95.11-3.87.68-5.79,1.02-3.11.56-6.3,1.35-9.22,2.6-1.76.75-2.34,2.07-3.87,2.84-.85.43-2.27-.22-3.1.26-4.1,2.38-7.63,5.82-10.88,9.27-.65.69-1.55,1.17-2.16,1.91-.61.73-.96,1.67-1.53,2.44-.57.76-1.12,1.53-1.65,2.33-.52.8-.55,1.87-1.03,2.7-.47.82-1.79,1.19-2.22,2.05-.42.85.28,2.21-.09,3.09-.37.87-.68,1.72-1.01,2.62-.33.9-1.25,1.57-1.52,2.48-.93,3.13-2,6.39-2.39,9.63-.22,1.82.35,2.69.36,4.41.03,9.43,1.07,18.08,6.77,25.95,1.43,1.97,3.71,3.23,5.27,5.1.61.73.61,1.97,1.26,2.67,2.56,2.71,5.13,5.89,8.33,7.99.8.52,1.76.85,2.59,1.32.82.47,1.73.87,2.59,1.29,1.59.79,3.63,1.33,5.49,1.88.56.16,1.1.33,1.6.5,1.31.44,1.92.2,3.24.41.98.16,1.07.78,1.92,1.07,1.64.55,2.77.79,4.56.62,1.95-.18,3.49.08,5.49.08.96,0,1.87-.52,2.82-.58,2.93-.18,5.49.17,8.53-.56.93-.22,2.01.04,2.92-.23.91-.28,1.67-1.07,2.57-1.4,6.14-2.26,13.17-6.46,17.86-10.98,2.46-2.37,4.91-4.77,6.69-7.71,2.53-4.19,4.54-8.78,5.93-13.46.27-.92-.7-2.15-.48-3.07ZM597.28,463.26c-.53.97-1.93.95-2.63,1.77-1.03,1.19-.91,3.06-1.85,4.33-1.19,1.61-3.18,2.57-4.63,3.92-.87.81-1.66,2.25-2.59,2.87-4.29,2.9-8.81,3.34-13.7,4.36-.93.19-1.83.41-2.77.53-3.83.49-7.51.79-11.35.05-.93-.18-1.78-.69-2.71-.94-.98-.27-1.93.51-2.89.19-.82-.27-1.81-1.52-2.6-2-1.6-.99-3.43-1.53-5.01-2.57-.8-.53-1.3-1.44-2.05-2.03-.75-.59-2.33-.24-3.03-.88-1.86-1.7-3.63-4.98-5.07-7.09-.53-.79-1.03-1.62-1.5-2.44-.47-.83-1.39-1.46-1.8-2.32-.47-1.01.02-2.2-.42-3.22-.37-.85-1.43-1.47-1.82-2.45-.68-1.68-.37-3.86-.58-5.51-.58-4.58.08-9.31,1.27-13.74.91-3.38,2.45-5.13,3.99-7.93,1.93-3.51,3.15-6.52,6.22-9.36,2.76-2.56,5.96-4.61,9.12-6.63,6.05-3.86,15.74-3.48,22.48-2.18,1.91.37,3.89.08,5.78.55,2.75.68,5.17,3.11,7.34,4.53,1.52,1,2.35,2.05,3.6,3.08,1.45,1.18,3.42,1.42,4.79,2.65,1.62,1.45,1.74,4.38,2.95,6.16,1.2,1.76,1.26,3.45,2.03,5.23.43.98,1.56,1.89,1.86,2.92.54,1.85.35,4.32.69,6.28.46,2.68,1.48,5.49.99,8.24-.49,2.77-2.16,5.66-3.17,8.27-.56,1.44-.37,4.32-.94,5.36Z"/>
  <g>
    <path class="st6" d="M199.93,442.76c9.57,1.85,17.02,6.9,22.36,15.14,5.34,8.24,7.08,17.18,5.21,26.83-1.07,5.56-4.36,11.96-9.86,19.21-1.56,1.91-2.5,3.67-2.82,5.31-.44,2.29.79,4.31,3.7,6.06,1.85,1.04,2.66,2.13,2.44,3.27-.22,1.15-.99,1.59-2.31,1.33-.83-.16-1.81-.35-2.96-.57-3.29-.64-8.15-1.57-14.57-2.82-.49-.1-2.47-.48-5.93-1.15s-5.76-1.11-6.91-1.34l-2.72-.52c-1.81-.35-2.61-1.1-2.38-2.25.25-1.32,1.31-1.88,3.17-1.69,7.82.49,14.21-.5,19.15-2.96,9.9-4.91,15.92-12.89,18.05-23.92,1.15-5.93.34-11.04-2.43-15.33-2.76-4.29-7.03-7-12.81-8.11-6.44-1.24-11.95-.17-16.54,3.21-2.59,1.89-4.52,3.7-5.8,5.41-1.27,1.72-4.54,6.85-9.78,15.4-10.46,16.94-22.63,24.06-36.49,21.38-9.24-1.79-16.4-6.39-21.47-13.81-5.07-7.42-6.72-15.7-4.95-24.85.63-3.26,2.57-7.97,5.81-14.12.81-1.54,1.34-2.96,1.59-4.27.66-3.43-.57-5.87-3.71-7.33-1.55-.81-2.23-1.7-2.04-2.68.22-1.14.99-1.59,2.31-1.33.17.03.66.13,1.48.29l10.37,2.01c3.92.93,10.34,1.74,19.26,2.44l.49.1c1.32.26,1.85,1.04,1.59,2.36-.19.99-2.92,1.74-8.19,2.26-6.33.66-11.76,2.89-16.29,6.71-4.53,3.82-7.37,8.7-8.52,14.62-1.08,5.6-.24,10.55,2.52,14.84,2.76,4.29,6.79,6.95,12.07,7.97,8.25,1.6,15.59-2.71,22.01-12.91,10.08-15.81,17.79-25.59,23.13-29.34,6.92-4.81,14.51-6.42,22.76-4.82Z"/>
    <path class="st6" d="M291.06,325.76c1,.62.59,2.54-1.22,5.76-6.2,11.55-9.86,22.8-10.97,33.77-.07.75-.24,1.33-.5,1.76-.53.85-1.37.93-2.5.22l-11.95-7.45c5.06,12.18,3.94,24.12-3.37,35.84-6.51,10.45-14.22,16.04-23.11,16.77-3.69.25-6.7-.11-9.04-1.07-2.34-.97-8.17-4.36-17.5-10.18l-48.54-30.26c-4.95-3.08-8.02-4.6-9.22-4.56-1.2.04-2.9,1.66-5.08,4.84l-1.73,2.78c-2.11,4.02-3.87,5.59-5.3,4.7-.99-.62-.74-2.14.77-4.56,1.6-2.56,4.09-6.14,7.49-10.75,1.7-2.3,2.68-3.67,2.94-4.09,3.1-4.98,5.7-9.78,7.79-14.41l59.27,36.94c10.91,6.8,18.57,10.59,23,11.37,6.94,1.17,12.59-1.74,16.93-8.71,4.7-7.54,5.04-15.03,1.03-22.48-2.93-5.38-9.36-11.17-19.28-17.35l-32.93-20.52c-4.82-3-8.56-5.04-11.24-6.11l-7.01-4.37c-2.21-1.18-3.74-1.49-4.58-.93-.84.56-2.02,2.05-3.53,4.47-3.58,6.07-6.08,8.66-7.5,7.77-.85-.53-.34-2.29,1.52-5.28l1.2-1.92c.71-1.14,3.06-4.91,7.05-11.31,5.32-8.54,8.6-13.8,9.85-15.8l59.56,37.12c10.25,6.39,16.86,10.21,19.82,11.47,2.97,1.27,5.21,1.15,6.73-.34,1.52-1.49,4.21-5.34,8.07-11.53,1.05-1.69,2.08-2.22,3.07-1.6Z"/>
    <path class="st6" d="M397.13,252.74c.77.99.16,2.26-1.83,3.8l-2.38,1.85c-2.38,1.85-5.63,4.37-9.73,7.56-12.98,10.08-20.66,16.05-23.04,17.9l-1.39,1.08c-1.72,1.34-2.94,1.54-3.66.62-.51-.66-.46-1.34.17-2.04.62-.69,3.07-2.81,7.34-6.34,2.41-2.08,3.59-3.58,3.52-4.49-.06-.9-1.53-3.2-4.41-6.9l-29.56-38.05c-11.19-14.4-18.39-22.57-21.6-24.52-6.87-4.19-13.68-3.67-20.44,1.58-6.62,5.15-9.93,12.37-9.91,21.68.01,2.75,1.2,5.64,3.56,8.68l48.04,61.82c1.23,1.59,3.31,1.35,6.24-.72l6.21-4.51c1.35-1.04,2.38-1.11,3.1-.18.72.92.28,2-1.31,3.24l-3.18,2.47c-2.91,2.26-7.55,5.86-13.91,10.8-1.46,1.13-4.6,3.58-9.43,7.33-4.84,3.76-7.65,5.94-8.44,6.56l-1.19.93c-1.99,1.54-3.29,1.91-3.92,1.1-.63-.81.16-2.26,2.36-4.34,1.72-1.33,3.38-2.62,4.97-3.86,1.99-1.54,2.82-2.93,2.5-4.17l-1.71-3.43-33.55-43.19c-11.7-15.06-18.3-23.27-19.79-24.66-1.5-1.37-3.77-.88-6.81,1.48-.93.72-2.52,1.96-4.77,3.7l-.99.77c-2.65,2.06-4.35,2.6-5.12,1.61-.98-1.27-.08-2.98,2.69-5.14,3.87-3.22,7.61-7.29,11.21-12.22,3.61-4.92,5.66-8.97,6.18-12.13.37-1.98.88-3.23,1.55-3.75.93-.72,2.37.18,4.32,2.69l7.41,9.53c0-14.22,5.42-25.55,16.28-33.99,9.53-7.41,19.14-9.25,28.84-5.52,5.47,2.12,12.53,8.74,21.17,19.87l35.19,45.29c3.29,4.24,5.29,6.4,6,6.49,1.41.18,3.64-.92,6.69-3.28.4-.31,1.12-.87,2.18-1.7l1.39-1.08c1.32-1.03,2.32-1.11,2.99-.25Z"/>
    <path class="st6" d="M428.05,70.06c1.42,3.22,1.62,6.29.62,9.21-1.01,2.92-3.05,5.05-6.11,6.4-2.92,1.28-5.78,1.44-8.58.48-2.81-.96-4.82-2.83-6.03-5.59-1.01-2.3-1.2-5.42-.55-9.38.12-.97.05-1.76-.22-2.38-1.55-3.53-4.84-4.19-9.86-1.98-8.52,3.75-11.72,11.75-9.6,24.01,1.2,6.44,5,16.95,11.42,31.53l4.96,11.28,15.02-6.61c3.03-1.33,4.84-1.35,5.41-.05.57,1.31-1.11,2.82-5.06,4.56l-13.65,6.01,39.71,90.25c.95,2.16,3.54,2.3,7.78.43,6.45-3.02,10.14-4.28,11.09-3.78.22.09.43.36.63.82.47,1.08-.21,2.02-2.05,2.83-.92.41-1.73.67-2.4.78l-18.78,8.54-25.1,11.04c-2.76,1.22-4.38,1.29-4.85.21-.54-1.23.29-2.33,2.5-3.3,7.89-3.47,12.02-5.84,12.41-7.11.18-.44.14-.98-.13-1.59l-1.55-2.89-38.49-87.49c-5.68,2.5-9.01,3.87-10,4.13-.99.25-1.72-.16-2.19-1.23-.61-1.38.47-2.68,3.23-3.9l7.37-3.24c-7.96-19.76-11.53-34.95-10.71-45.58,1.25-16.3,8.94-27.57,23.06-33.78,6.75-2.97,12.99-3.79,18.7-2.46,5.71,1.33,9.72,4.61,12.02,9.83Z"/>
    <path class="st6" d="M535.02,207.39c.32,1.48-.59,2.44-2.72,2.91l-2.95.64c-.33.07-4.71.85-13.14,2.33l-7.62,1.65c-1.31.29-7.84,1.83-19.59,4.63-.97.29-1.94.55-2.92.76-2.42.69-3.8.27-4.14-1.28-.23-1.07.55-1.81,2.35-2.2l6.39-1.38c4.59-.99,6.67-2.48,6.24-4.44-.05-1.02-1.35-7.43-3.91-19.23l-27.12-125.13c-1.17-5.41-1.98-8.32-2.41-8.74-.77-1.2-2.23-1.57-4.36-1.11l-1.97.43-6.88,1.49c-2.3.5-3.59.05-3.89-1.34-.27-1.24,1.63-2.38,5.69-3.42,7.76-2.2,14.66-5.58,20.71-10.15l4.63-3.58,1.81-1.16c2.34,4.47,4.48,11.56,6.41,21.26l3.78,17.45,26.11,120.46c1.07,4.92,1.78,7.81,2.14,8.68.36.87,1.07,1.36,2.12,1.47.2.13,3.27-.36,9.2-1.48,3.77-.82,5.78-.65,6.03.5Z"/>
    <path class="st6" d="M653.28,160.7c-1.39,16.21-7.48,29.36-18.27,39.46-10.8,10.1-23.55,14.52-38.25,13.26-15.21-1.3-27.44-7.86-36.69-19.68-9.26-11.81-13.19-25.83-11.8-42.03,1.43-16.71,7.59-30.15,18.48-40.33,10.88-10.18,23.76-14.63,38.63-13.35,15.04,1.29,27.13,7.92,36.29,19.9,9.16,11.98,13.03,26.24,11.61,42.78ZM630.5,158.5c1.57-18.38-.05-32.91-4.85-43.59-3.53-7.88-10.23-12.24-20.09-13.08-9.36-.8-17.08,3.38-23.16,12.53-6.09,9.16-9.86,22.26-11.32,39.3-1.44,16.88.22,30.27,5.02,40.19,4.79,9.92,12.2,15.31,22.22,16.17,7.68.66,13.62-1.78,17.79-7.31,7.96-10.43,12.76-25.16,14.39-44.21Z"/>
    <path class="st6" d="M831.53,169.69c-.54,1.32-1.97,1.51-4.3.56-1.71-.69-3.11-1.26-4.19-1.7l-1.86-.76c-3.26-1.33-8.21,1.92-14.83,9.75-4.08,5.12-8.07,10.27-11.99,15.46l-16.7,20.36c-5.93,7.01-15.05,18.32-27.38,33.94-3.55,4.71-5.95,6.81-7.19,6.31-1.09-.44-1.67-2.94-1.73-7.48-.06-4.55.29-17.34,1.04-38.39.24-5.51.5-13.55.8-24.1.23-6.96.57-12.7,1.03-17.22-13.01,14.62-30.69,35.58-53.03,62.87-1.37,1.59-2.68,2.13-3.92,1.63-1.25-.51-1.86-2.12-1.85-4.83.13-1.21.27-4.23.42-9.06l.46-17.19c.08-4.67.74-14.99,1.98-30.97,1.23-15.97,2-25.43,2.3-28.39.69-14.2.41-22.64-.86-25.33-1.15-1.19-3.55-2.53-7.21-4.02-3.66-1.49-5.2-2.93-4.63-4.33.44-1.08,1.52-1.28,3.23-.59l1.86.76c.16.06,2.87,1.17,8.15,3.32,5.13,2.09,10.72,4.36,16.78,6.82,2.48,1.01,5.05,2.05,7.69,3.13,2.64,1.07,4.27,1.74,4.89,1.99l2.8,1.14c2.17.88,3.01,1.95,2.5,3.19-.57,1.4-1.63,1.78-3.18,1.15l-5.83-2.37c-3.67-1.67-5.84-1.66-6.54.05-.57,1.39-1.08,6.87-1.52,16.43-.79,16.64-2.16,37.37-4.11,62.2,15.48-19.07,29.11-35.36,40.89-48.87,1.75-1.99,4.55-5.18,8.4-9.57,3.98-4.9,6.75-7.03,8.31-6.4,1.55.63,2.14,3.86,1.77,9.68-.93,10.31-2.01,30.32-3.24,60.05-.16,3.91-.48,9.75-.94,17.52l49.67-61.77c.38-.94-.36-1.79-2.23-2.55-.62-.25-2.88-1.17-6.78-2.76-1.72-.7-2.3-1.7-1.76-3.03.54-1.32,1.89-1.54,4.07-.65l2.33.95,24.47,9.95c1.86.76,2.53,1.8,1.99,3.12Z"/>
    <path class="st6" d="M864.26,307.67c-1.11,1.26-4.04,2.65-8.81,4.15-4.77,1.51-9.05,2.39-12.84,2.64-10.29.81-19.97-2.77-29.06-10.72-11.36-9.94-17.27-22.35-17.73-37.23-.46-14.88,4.61-28.38,15.21-40.5,11.04-12.62,23.89-19.99,38.54-22.09,14.65-2.11,27.41,1.58,38.26,11.08,8.96,7.84,14.18,17.03,15.66,27.56,1.48,10.54-1.18,20.07-7.98,28.61-4.59-2.9-10.18-7.34-16.75-13.32l-13.25-11.59c-.88-.77-8.62-7.21-23.21-19.31-4.27,3.6-8.04,7.29-11.34,11.06-11.11,12.7-17.24,24.6-18.37,35.71-1.14,11.1,2.71,20.52,11.55,28.25,5.05,4.42,10.08,6.81,15.1,7.19,5.02.38,12.11-1.11,21.27-4.45,1.38-.57,2.52-.47,3.41.31,1.01.88,1.13,1.77.36,2.65ZM881.57,254.64c12.74-15.59,13.94-27.91,3.59-36.96-10.22-8.94-23.22-6.95-39,5.99l35.4,30.97Z"/>
    <path class="st6" d="M970.51,348.67c-3.27,2.06-6.58,2.76-9.96,2.12-3.38-.65-6.05-2.53-8.02-5.65-1.61-2.55-2.2-5.15-1.79-7.79.42-2.64,1.76-4.68,4.03-6.11,1.98-1.25,4.09-1.69,6.31-1.3,2.22.38,3.62.39,4.19.04,2.13-1.34,2.21-3.57.24-6.69-2.5-3.97-7.12-5.82-13.85-5.54-7.85.38-19.6,5.52-35.27,15.39l-41.92,26.42c-1.7,1.07-2.37,2.34-2.04,3.81.33,1.47,2.35,5.3,6.06,11.49.7,1.74.62,2.88-.23,3.41-.99.63-2.07.01-3.23-1.83-2.06-3.27-3.98-6.31-5.77-9.15-1.79-2.84-5.19-8.23-10.19-16.17-2.59-4.12-4.47-7.1-5.63-8.94-1.16-1.85-2.64-4.19-4.43-7.02-1.43-2.27-1.72-3.67-.87-4.21s1.86.12,3.02,1.96l1.88,2.98c3.04,4.82,5.4,7.3,7.08,7.43.75-.08,3.47-1.59,8.18-4.56l58.82-37.07c7.84-4.94,11.63-8.97,11.37-12.07-.26-3.1-1.93-7.25-5.01-12.45-1.07-1.7-1.11-2.87-.12-3.49.99-.63,1.94-.23,2.83,1.19l.94,1.49c1.34,2.13,2.58,4.32,3.7,6.58,1.13,2.26,1.6,3.25,1.42,2.97,3.31,5.25,8.46,10.13,15.47,14.63l3.02,1.96,1.71,1.3c-3.05,2.71-6.27,5.14-9.68,7.29l-4.26,2.68c12.51-1.54,21.35,1.8,26.54,10.03,2.86,4.54,3.85,9.17,2.96,13.89-.89,4.72-3.39,8.38-7.51,10.97Z"/>
    <path class="st6" d="M1042.32,373.38c-11.36,4.55-21.42,3.33-30.17-3.64-6.08-4.8-9.95-9.3-11.63-13.5-.69-1.72-.41-2.82.84-3.32,1.09-.44,2.24.19,3.46,1.87,4.89,6.35,9.3,10.37,13.22,12.05,3.92,1.68,8.53,1.47,13.83-.65,4.2-1.68,7.38-4.13,9.53-7.33-5.3,2.12-9.28-.17-11.96-6.87-1.37-3.43-1.38-6.72-.02-9.88,1.35-3.16,3.67-5.4,6.94-6.7,3.89-1.56,7.78-1.44,11.66.35,3.87,1.79,6.66,4.79,8.33,8.99,2.3,5.76,2.14,11.34-.49,16.72-2.64,5.39-7.14,9.36-13.53,11.91Z"/>
    <path class="st6" d="M948.39,500.3c-9.55,1.96-18.37.16-26.46-5.41-8.09-5.56-13.13-13.16-15.1-22.78-1.14-5.55-.56-12.72,1.74-21.52.71-2.36.9-4.35.57-5.98-.47-2.29-2.38-3.68-5.74-4.18-2.11-.25-3.28-.94-3.51-2.09-.24-1.14.31-1.85,1.62-2.12.82-.17,1.81-.37,2.96-.61,3.28-.68,8.13-1.67,14.54-2.99.49-.1,2.46-.51,5.91-1.21,3.45-.71,5.75-1.18,6.9-1.42l2.71-.56c1.8-.37,2.83.02,3.06,1.17.27,1.31-.49,2.24-2.27,2.78-7.41,2.55-12.93,5.91-16.56,10.08-7.26,8.34-9.76,18.01-7.5,29.02,1.22,5.91,3.92,10.32,8.12,13.23,4.2,2.9,9.18,3.77,14.94,2.58,6.42-1.32,11.1-4.42,14.05-9.3,1.67-2.74,2.76-5.15,3.28-7.22.52-2.08,1.56-8.07,3.13-17.98,3.17-19.65,11.67-30.9,25.5-33.74,9.22-1.89,17.59-.39,25.12,4.52,7.53,4.91,12.23,11.92,14.11,21.05.67,3.26.69,8.35.05,15.27-.16,1.73-.1,3.25.16,4.55.7,3.42,2.78,5.2,6.23,5.35,1.74.15,2.71.72,2.91,1.7.23,1.14-.3,1.84-1.62,2.11-.16.03-.66.13-1.48.3l-10.35,2.12c-3.98.64-10.22,2.36-18.72,5.13l-.49.1c-1.32.27-2.11-.25-2.38-1.57-.2-.99,2.03-2.73,6.7-5.23,5.6-3.03,9.75-7.18,12.48-12.45,2.72-5.27,3.47-10.86,2.26-16.77-1.15-5.59-3.82-9.83-8.02-12.73-4.2-2.91-8.94-3.81-14.2-2.73-8.23,1.69-13.36,8.48-15.38,20.36-3.25,18.47-6.62,30.46-10.12,35.97-4.55,7.1-10.94,11.49-19.17,13.18Z"/>
  </g>
</svg>